#!OML:ASF F:\VICON\USERDATA\INSTALL\rory3\rory3.ASF
:FULLY-SPECIFIED
:DEGREES
27
root -6.03404992743455 17.671247091505315 2.3364443511741753 -4.554913407516665 41.576186265961425 -17.44435029293652
lfemur -6.8913186043326125 19.51112169880511 7.162321212702748
ltibia 34.1419020370589
lfoot -5.200817752051826 18.694321295787354
ltoes -25.451829246743394
rfemur -30.39622904269605 17.848306520355578 28.25640050370817
rtibia 28.98109604982386
rfoot -5.943566107086052 21.036087385373314
rtoes 35.83443912371237
lowerback 0.13470020983210862 -8.057442568622122 -13.34401560972327
upperback -0.42015242357396065 -10.845419484202864 -4.394277482657822
thorax 2.109976120131432 -5.594664916749634 3.3272877436346207
lowerneck -6.713436599178655 19.08252026344393 1.1596032310011801
upperneck 18.81679753671692 28.8492101650962 -11.246578610559624
head 9.168822564273412 12.683613866427091 -0.9846817369062011
lclavicle -6.029557936178672e-15 -1.0930506607098364e-14
lhumerus 101.97672428022992 -49.952286640255984 30.841875369953602
lradius 32.27569049883316
lwrist -0.4153172838383412
lhand -13.211218215739866 2.8280653495243513
lfingers 7.125020000000001
lthumb -167.12399863988662 96.28147274046506
rclavicle -6.029557936178669e-15 -1.0930506607098364e-14
rhumerus 16.100404892833758 -11.008103311675256 -80.63587000689549
rradius 102.13535322385607
rwrist -17.54840493141467
rhand -64.3895853500278 27.919584282964117
rfingers 7.125020000000001
rthumb -36.35119726345364 1.100749265317754
28
root -6.033474766597515 17.67877866297241 2.4516599991500754 -6.723083379259052 40.1488603825006 -19.78046994122475
lfemur -6.3553910564716105 19.312077636770645 7.053628534017912
ltibia 34.178927161677116
lfoot -4.440013966729701 18.126324160376242
ltoes -26.596585445712503
rfemur -30.24800435904789 18.041309513856035 28.013115678447292
rtibia 29.114216353033026
rfoot -6.116036002419871 21.518196736269715
rtoes 38.334521994744634
lowerback 0.13127349909004504 -8.580378866197849 -13.403447805702875
upperback -0.7852950153560929 -11.552203864306708 -4.573647488022717
thorax 1.7757801907212274 -5.868151948125046 3.1921850562714438
lowerneck -6.763651257823209 19.28527547186879 0.8607632123243815
upperneck 17.455946166619476 28.862712374633464 -11.393483096603623
head 8.664528218484561 12.780389447653103 -1.0363829531345958
lclavicle -6.522001928567648e-15 -1.1351848478711478e-14
lhumerus 103.35330286712663 -49.47637798908197 32.69903517583421
lradius 33.07478330118425
lwrist -0.7741279669629684
lhand -15.536944453145855 1.9824389999334464
lfingers 7.125020000000001
lthumb -169.36162948126028 93.25773187220067
rclavicle -6.5220019285676395e-15 -1.135184847871148e-14
rhumerus 18.43888192323682 -11.472156760131469 -78.13051192898916
rradius 104.16017210296954
rwrist -14.23007808661916
rhand -64.07633075770966 29.905350780190005
rfingers 7.125020000000001
rthumb -36.05128376961764 3.0494150276631586
29
root -6.029647209302584 17.689887766236637 2.5724998105768933 -8.540054557721092 38.96974093684006 -21.72364684454547
lfemur -5.83205023247481 19.018843919410156 6.892082734688753
ltibia 34.0905168333157
lfoot -3.5801494638297022 17.761879087669037
ltoes -27.01733112679169
rfemur -30.102336181302398 18.228609772612273 27.671154635510124
rtibia 29.266650299032786
rfoot -5.865214029374553 22.308814037315535
rtoes 40.3351617987563
lowerback -0.0184509168264424 -8.955856494807866 -13.502514713559322
upperback -1.187270705207959 -12.133594383741293 -4.679674533042842
thorax 1.4554312446146476 -6.118648931221946 3.1123318078472244
lowerneck -6.819936924825815 19.433303911833104 0.506810903471005
upperneck 16.30985618134972 28.889980289716462 -11.6187453091137
head 8.214695579412627 12.882007008886646 -1.12108376992203
lclavicle -6.7879678435976255e-15 -1.1581527701850001e-14
lhumerus 104.08845577648836 -48.80628393112383 34.36263969670104
lradius 33.9527494409505
lwrist -0.8338765698934623
lhand -17.50916050930019 1.2130349892061467
lfingers 7.125020000000001
lthumb -171.2625017514027 94.05917986667404
rclavicle -6.787967843597613e-15 -1.1581527701850001e-14
rhumerus 20.514558003305297 -12.621734215492395 -75.3639117455403
rradius 105.43914820721866
rwrist -10.715043336861356
rhand -63.749463805423694 31.228475305027803
rfingers 7.125020000000001
rthumb -35.74242474634607 4.262429396369367
30
root -6.019900266643392 17.707441421467855 2.7262192289064564 -8.719895049963512 38.35123311034428 -21.926914752418938
lfemur -5.36627173848753 19.45039498548143 6.864279408911267
ltibia 34.23990136641051
lfoot -2.269340588975277 17.838727479665245
ltoes -27.477913619974718
rfemur -29.989742732668283 18.56743518385433 27.514464129776655
rtibia 29.659306309739947
rfoot -5.439961545134747 23.547368988970227
rtoes 41.411402813252735
lowerback 0.06360851935384648 -9.310947531809234 -13.518927994644354
upperback -1.3940647321514277 -12.594649022407733 -4.6459371862474175
thorax 1.225984019370985 -6.281559013755141 3.151779382108092
lowerneck -6.740157353869847 19.938903408022917 0.2112563820144544
upperneck 15.35729186109775 29.398501438056446 -11.780881226126233
head 7.8579032307639585 13.169155710288857 -1.1574887188751861
lclavicle -6.0874122537478904e-15 -1.1019420546298242e-14
lhumerus 104.7489207019325 -47.37362620913255 36.69075066305538
lradius 34.908747823519114
lwrist -0.8065940159449596
lhand -19.33099588649217 0.10859294184887602
lfingers 7.125020000000001
lthumb -173.0177635762574 88.89683887636727
rclavicle -6.087412253747887e-15 -1.1019420546298245e-14
rhumerus 23.041236795535653 -13.927567494514548 -72.55618735812952
rradius 106.52219281024142
rwrist -6.754531693348012
rhand -63.26128605377694 32.503125029956195
rfingers 7.125020000000001
rthumb -35.275835704988566 5.425270326418978
